# xmcd
#
# Track frame offsets: 
#        150
#        9534
#        15959
#        29973
#        44588
#        63761
#        73638
#        86990
#        101124
#        109545
#        121081
#        131848
#        147605
#        157975
#        172867
#        186400
#        198634
#        208787
#        221935
#        233279
#        250864
#        262725
#        272950
#        288900
#        302336
#        314618
#
# Disc length: 4358 seconds
#
# Revision: 0
# Processed by: cddbd v1.5.2PL0 Copyright (c) Steve Scherf et al.
# Submitted via: ExactAudioCopyFreeDBPlugin 1.0
#
DISCID=8011041a
DTITLE=Kalle Klang and Die Flohtöne - Sing Mit Mir Weihnachtslieder
DYEAR=2019
DGENRE=Wihnachtsmusik
TTITLE0=O Tannenbaum
TTITLE1=Schneeflöckchen, Weissröckchen
TTITLE2=Jingle Bells
TTITLE3=Stille Nacht, Heilige Nacht
TTITLE4=Engel Auf Den Feldern Singen (Gloria In Excelsis Deo)
TTITLE5=Alle Jahre Wieder
TTITLE6=Morgen, Kinder, Wird's Was Geben
TTITLE7=Feliz Navidad
TTITLE8=Leise Rieselt Der Schnee
TTITLE9=In Dulci Jubilo
TTITLE10=Lasst Uns Froh Und Munter Sein
TTITLE11=Oh Du Fröhliche
TTITLE12=Süßer Die Glocken Nie Klingen
TTITLE13=Go, Tell It On The Mountain
TTITLE14=Ihr Kinderlein Kommet
TTITLE15=A, A, A, Der Winter Der Ist Da
TTITLE16=Kling Glöckchen, Klingelingeling
TTITLE17=Am Weihnachtsbaum Die Lichter Brennen
TTITLE18=Morgen Kommt Der Weihnachtsmann
TTITLE19=Es Ist Ein Ros' Entsprungen
TTITLE20=We Wish You A Merry Christmas
TTITLE21=Kommet, Ihr Hirten
TTITLE22=Vom Himmel Hoch, Da Komm Ich Her
TTITLE23=Eine Muh, Eine Mäh (Der Weihnachtsmann Kommt)
TTITLE24=Fröhliche Weihnacht Überall
TTITLE25=Still, Still, Still (Weil's Kindlein Schlafen Will)
EXTD=
EXTT0=
EXTT1=
EXTT2=
EXTT3=
EXTT4=
EXTT5=
EXTT6=
EXTT7=
EXTT8=
EXTT9=
EXTT10=
EXTT11=
EXTT12=
EXTT13=
EXTT14=
EXTT15=
EXTT16=
EXTT17=
EXTT18=
EXTT19=
EXTT20=
EXTT21=
EXTT22=
EXTT23=
EXTT24=
EXTT25=
PLAYORDER=
